<?xml version="1.0" standalone="no"?>
<svg
  width="600"
  height="600"
  viewBox="0 0 600 600"
  xmlns="http://www.w3.org/2000/svg"
>
  <g transform="translate(300,300)">
    <path d="M150.5,-172C185.3,-150.2,197,-93.5,189.9,-46.4C182.8,0.6,156.8,38.1,133.9,76.9C111,115.8,91.2,156.1,55.9,180.6C20.6,205.2,-30.2,213.9,-65.7,194.8C-101.1,175.6,-121.1,128.6,-156.5,82.8C-191.9,37.1,-242.7,-7.3,-232.6,-36.9C-222.4,-66.4,-151.4,-81.1,-102.5,-100.5C-53.6,-119.8,-26.8,-143.9,15.5,-162.4C57.9,-180.9,115.7,-193.9,150.5,-172Z" fill="#FFB4BC" />
  </g>
</svg>
  