<?xml version="1.0" standalone="no"?>
<svg
  width="600"
  height="600"
  viewBox="0 0 600 600"
  xmlns="http://www.w3.org/2000/svg"
>
  <g transform="translate(300,300)">
    <path d="M97.5,-133.5C118.6,-98.4,122.8,-60.4,112.6,-32.6C102.3,-4.8,77.6,12.9,73.3,63.1C69.1,113.4,85.3,196.2,70.6,207.4C55.9,218.6,10.1,158.2,-29,124.5C-68.2,90.8,-100.8,83.9,-136.5,60.3C-172.3,36.6,-211.2,-3.7,-207.1,-38.1C-203,-72.6,-155.8,-101,-114.1,-132.5C-72.4,-164,-36.2,-198.5,1,-199.6C38.1,-200.8,76.3,-168.6,97.5,-133.5Z" fill="#FFB4BC" />
  </g>
</svg>
  