<?xml version="1.0" standalone="no"?>
<svg
  width="600"
  height="600"
  viewBox="0 0 600 600"
  xmlns="http://www.w3.org/2000/svg"
>
  <g transform="translate(300,300)">
    <path d="M45,-53.7C67.4,-34.9,100.6,-29.3,126.4,-4.3C152.2,20.6,170.5,64.8,163.3,110.4C156.2,156,123.6,203,79.6,219.3C35.6,235.5,-19.8,221.1,-75.6,202.9C-131.3,184.7,-187.3,162.6,-207.6,122.3C-227.9,82.1,-212.4,23.7,-187.5,-18.4C-162.6,-60.4,-128.2,-86.1,-95.4,-103C-62.6,-119.9,-31.3,-127.9,-10,-116.1C11.4,-104.2,22.7,-72.4,45,-53.7Z" fill="#FFB4BC" />
  </g>
</svg>
  