<?xml version="1.0" standalone="no"?>
<svg
  width="600"
  height="600"
  viewBox="0 0 600 600"
  xmlns="http://www.w3.org/2000/svg"
>
  <g transform="translate(300,300)">
    <path d="M67.2,-66.2C104,-49.2,162.3,-44.1,187.6,-16C212.9,12.1,205.2,63,174.2,85.5C143.3,107.9,89.1,101.9,41.4,123.5C-6.3,145,-47.4,194.2,-66.7,186C-85.9,177.8,-83.2,112.1,-86.7,68.4C-90.1,24.6,-99.7,2.7,-97,-17.9C-94.3,-38.4,-79.3,-57.5,-61.1,-77.8C-42.9,-98.1,-21.4,-119.5,-3.1,-115.8C15.2,-112.1,30.4,-83.3,67.2,-66.2Z" fill="#FFB4BC" />
  </g>
</svg>
  