<?xml version="1.0" standalone="no"?>
<svg
  width="600"
  height="600"
  viewBox="0 0 600 600"
  xmlns="http://www.w3.org/2000/svg"
>
  <g transform="translate(300,300)">
    <path d="M158.5,-185.7C202.9,-151.5,234.9,-99.3,245.4,-42.8C255.9,13.6,244.8,74.3,215.2,122.9C185.5,171.4,137.2,207.9,81.4,231.6C25.7,255.3,-37.6,266.2,-90.5,247.5C-143.5,228.8,-186.1,180.4,-214.2,126.3C-242.4,72.1,-256.1,12.3,-249.6,-47.4C-243.1,-107,-216.4,-166.5,-171.4,-200.6C-126.4,-234.7,-63.2,-243.3,-3.1,-239.6C57,-235.9,114,-219.8,158.5,-185.7Z" fill="#FFB4BC" />
  </g>
</svg>
  