<?xml version="1.0" standalone="no"?>
<svg
  width="600"
  height="600"
  viewBox="0 0 600 600"
  xmlns="http://www.w3.org/2000/svg"
>
  <g transform="translate(300,300)">
    <path d="M62.5,-70C86.5,-54.4,115.1,-39.9,125.4,-16.9C135.7,6.1,127.6,37.5,114.9,72.8C102.2,108,85,147,50.1,176.6C15.3,206.1,-37.2,226.2,-81.5,214.2C-125.8,202.3,-162.1,158.4,-162.9,114.6C-163.7,70.8,-129.1,27.1,-108.6,-7C-88.1,-41,-81.7,-65.3,-65.9,-82.4C-50.1,-99.4,-25.1,-109.2,-2.9,-105.8C19.3,-102.3,38.6,-85.6,62.5,-70Z" fill="#FFB4BC" />
  </g>
</svg>
  