<?xml version="1.0" standalone="no"?>
<svg
  width="600"
  height="600"
  viewBox="0 0 600 600"
  xmlns="http://www.w3.org/2000/svg"
>
  <g transform="translate(300,300)">
    <path d="M109.2,-131.7C145.2,-100,180.4,-69,205,-22.4C229.5,24.1,243.4,86.3,221.9,132.4C200.4,178.6,143.7,208.6,86.5,223.2C29.3,237.7,-28.3,236.8,-85,221.4C-141.8,206.1,-197.8,176.3,-220.9,130.4C-244,84.5,-234.3,22.4,-207.6,-20.6C-181,-63.7,-137.4,-87.8,-100,-119.2C-62.6,-150.6,-31.3,-189.3,2.7,-192.5C36.6,-195.7,73.3,-163.3,109.2,-131.7Z" fill="#FFB4BC" />
  </g>
</svg>
  