<?xml version="1.0" standalone="no"?>
<svg
  width="600"
  height="600"
  viewBox="0 0 600 600"
  xmlns="http://www.w3.org/2000/svg"
>
  <g transform="translate(300,300)">
    <path d="M166.6,-196.2C209.8,-162.3,234.4,-104,242.4,-44.8C250.3,14.4,241.6,74.4,212.2,119.6C182.7,164.8,132.4,195.2,79.2,212.2C26,229.3,-30.1,233,-80.4,216.6C-130.8,200.2,-175.4,163.6,-200.4,117.2C-225.4,70.8,-230.9,14.5,-224.1,-42.2C-217.3,-99,-198.3,-156.4,-159,-190.9C-119.6,-225.5,-59.8,-237.2,1,-238.4C61.7,-239.5,123.4,-230.1,166.6,-196.2Z" fill="#FFB4BC" />
  </g>
</svg>
  