<?xml version="1.0" standalone="no"?>
<svg
  width="600"
  height="600"
  viewBox="0 0 600 600"
  xmlns="http://www.w3.org/2000/svg"
>
  <g transform="translate(300,300)">
    <path d="M103.4,-102.6C145.1,-88.2,197.6,-66.2,199.2,-38C200.8,-9.7,151.5,24.6,114.5,44.8C77.5,65,52.8,71,27.2,84.7C1.6,98.4,-24.9,119.7,-69.8,130.1C-114.7,140.5,-178.2,140,-197,111.7C-215.9,83.3,-190.2,27.2,-170.8,-21C-151.4,-69.1,-138.4,-109.3,-111,-126.1C-83.6,-142.9,-41.8,-136.5,-5.5,-129.9C30.9,-123.4,61.7,-116.9,103.4,-102.6Z" fill="#FFB4BC" />
  </g>
</svg>
  