<?xml version="1.0" standalone="no"?>
<svg
  width="600"
  height="600"
  viewBox="0 0 600 600"
  xmlns="http://www.w3.org/2000/svg"
>
  <g transform="translate(300,300)">
    <path d="M133.9,-162.7C178.2,-122.4,222,-84.6,240.2,-34.5C258.4,15.6,250.9,78,218.1,117.6C185.4,157.3,127.4,174,75.6,181.4C23.8,188.9,-21.8,187,-60.6,171C-99.5,154.9,-131.6,124.7,-163.2,86.3C-194.8,47.9,-225.9,1.3,-215.6,-34.6C-205.2,-70.6,-153.4,-95.8,-110.5,-136.4C-67.7,-177,-33.9,-233,5.5,-239.5C44.8,-246,89.6,-203.1,133.9,-162.7Z" fill="#FFB4BC" />
  </g>
</svg>
  