<?xml version="1.0" standalone="no"?>
<svg
  width="600"
  height="600"
  viewBox="0 0 600 600"
  xmlns="http://www.w3.org/2000/svg"
>
  <g transform="translate(300,300)">
    <path d="M145.9,-171.2C187.3,-139.2,217.7,-91.5,215.8,-46.3C213.9,-1.2,179.7,41.4,151.4,84.4C123,127.4,100.5,170.8,71.9,168.7C43.3,166.6,8.7,119,-19.9,92.3C-48.5,65.6,-71,59.8,-111.8,39.9C-152.6,20.1,-211.7,-13.8,-222,-53.6C-232.2,-93.4,-193.5,-139,-148.4,-170.4C-103.3,-201.7,-51.6,-218.9,0.3,-219.3C52.3,-219.6,104.6,-203.3,145.9,-171.2Z" fill="#FFB4BC" />
  </g>
</svg>
  