<?xml version="1.0" standalone="no"?>
<svg
  width="600"
  height="600"
  viewBox="0 0 600 600"
  xmlns="http://www.w3.org/2000/svg"
>
  <g transform="translate(300,300)">
    <path d="M143.7,-171.7C184,-137.3,213.1,-90,225.3,-37.3C237.4,15.4,232.6,73.4,208.4,124.9C184.1,176.3,140.4,221.1,87.8,239.5C35.2,257.8,-26.3,249.6,-82.4,228.4C-138.6,207.2,-189.2,172.8,-216.6,125.2C-244,77.5,-248,16.5,-233,-36.3C-218,-89.1,-183.9,-133.8,-141.9,-167.9C-99.8,-202,-49.9,-225.5,0.9,-226.5C51.6,-227.5,103.3,-206.1,143.7,-171.7Z" fill="#FFB4BC" />
  </g>
</svg>
  