<?xml version="1.0" standalone="no"?>
<svg
  width="600"
  height="600"
  viewBox="0 0 600 600"
  xmlns="http://www.w3.org/2000/svg"
>
  <g transform="translate(300,300)">
    <path d="M121.9,-143C166.8,-107.7,217.8,-77.6,220.6,-41.8C223.4,-6.1,178,35.2,143.1,70.5C108.3,105.8,84.1,135.1,46.6,164.7C9.1,194.2,-41.6,224,-92.3,220.1C-143,216.1,-193.6,178.6,-205.9,131.4C-218.3,84.2,-192.4,27.4,-178.4,-28C-164.5,-83.4,-162.6,-137.5,-134.9,-175.7C-107.1,-214,-53.6,-236.5,-7.5,-227.6C38.6,-218.6,77.1,-178.3,121.9,-143Z" fill="#FFB4BC" />
  </g>
</svg>
  