<?xml version="1.0" standalone="no"?>
<svg
  width="600"
  height="600"
  viewBox="0 0 600 600"
  xmlns="http://www.w3.org/2000/svg"
>
  <g transform="translate(300,300)">
    <path d="M172.7,-203.6C221.1,-165.2,255.8,-108.2,267,-46.8C278.3,14.7,266,80.6,234.1,134.4C202.1,188.2,150.5,229.9,91.1,252.3C31.8,274.7,-35.2,277.8,-90.7,255.1C-146.1,232.3,-190,183.7,-221.7,128.2C-253.4,72.8,-272.9,10.6,-263.5,-47.1C-254.1,-104.9,-215.8,-158.1,-167,-196.5C-118.3,-235,-59.1,-258.5,1.5,-260.3C62.1,-262.1,124.3,-242.1,172.7,-203.6Z" fill="#FFB4BC" />
  </g>
</svg>
  