<?xml version="1.0" standalone="no"?>
<svg
  width="600"
  height="600"
  viewBox="0 0 600 600"
  xmlns="http://www.w3.org/2000/svg"
>
  <g transform="translate(300,300)">
    <path d="M111.7,-132C153.6,-98,202.3,-71.1,214.2,-33.4C226,4.3,200.9,52.9,175.5,105.5C150.2,158.2,124.5,214.9,85.2,225.4C45.9,235.9,-7,200.2,-48.7,169.5C-90.4,138.8,-121,113.1,-139.4,80.7C-157.8,48.3,-164.1,9.1,-163.2,-34.4C-162.2,-78,-154.1,-125.9,-125.7,-162.3C-97.3,-198.6,-48.6,-223.3,-6.9,-215.1C34.9,-207,69.8,-165.9,111.7,-132Z" fill="#FFB4BC" />
  </g>
</svg>
  