<?xml version="1.0" standalone="no"?>
<svg
  width="600"
  height="600"
  viewBox="0 0 600 600"
  xmlns="http://www.w3.org/2000/svg"
>
  <g transform="translate(300,300)">
    <path d="M148.2,-185.3C176.4,-153,172.9,-91.4,173.4,-38.1C173.8,15.3,178.3,60.4,165.2,107C152.1,153.7,121.6,201.8,77.9,220.4C34.3,239,-22.3,228,-70.1,205.2C-117.9,182.4,-156.8,147.7,-175.2,106C-193.5,64.2,-191.3,15.4,-183.6,-33.1C-176,-81.7,-162.9,-130.1,-131.4,-161.9C-99.8,-193.7,-49.9,-208.8,5,-214.8C60,-220.8,120,-217.7,148.2,-185.3Z" fill="#FFB4BC" />
  </g>
</svg>
  