<?xml version="1.0" standalone="no"?>
<svg
  width="600"
  height="600"
  viewBox="0 0 600 600"
  xmlns="http://www.w3.org/2000/svg"
>
  <g transform="translate(300,300)">
    <path d="M98.1,-105.9C134,-86.7,174.8,-62.4,173.7,-35.5C172.6,-8.7,129.6,20.7,101.8,49.4C74,78.1,61.5,106.3,35.8,128.9C10,151.6,-28.8,168.8,-54.9,156.8C-80.9,144.7,-94.2,103.4,-124.9,64.9C-155.6,26.5,-203.9,-9,-200.3,-36.4C-196.8,-63.9,-141.5,-83.3,-99.4,-101.3C-57.4,-119.4,-28.7,-136.2,1.2,-137.6C31.1,-139,62.1,-125.1,98.1,-105.9Z" fill="#FFB4BC" />
  </g>
</svg>
  