<?xml version="1.0" standalone="no"?>
<svg
  width="600"
  height="600"
  viewBox="0 0 600 600"
  xmlns="http://www.w3.org/2000/svg"
>
  <g transform="translate(300,300)">
    <path d="M133.2,-159.9C168.6,-128.9,190.7,-83.2,197.1,-36.3C203.6,10.7,194.5,58.8,173.3,104.4C152.2,150,119,192.9,75.4,210.2C31.7,227.4,-22.5,218.9,-77.5,203.1C-132.5,187.3,-188.4,164.2,-216.8,121.8C-245.2,79.5,-246.2,17.9,-236,-41.9C-225.9,-101.8,-204.5,-160.1,-163.3,-190C-122.1,-219.9,-61.1,-221.4,-6.1,-214.2C48.9,-206.9,97.7,-190.8,133.2,-159.9Z" fill="#FFB4BC" />
  </g>
</svg>
  