<?xml version="1.0" standalone="no"?>
<svg
  width="600"
  height="600"
  viewBox="0 0 600 600"
  xmlns="http://www.w3.org/2000/svg"
>
  <g transform="translate(300,300)">
    <path d="M146.4,-180.2C188.3,-139.4,219.7,-91.8,222.4,-44C225.2,3.8,199.2,51.9,167.9,88.4C136.7,124.9,100.1,149.9,60.8,161.8C21.5,173.8,-20.5,172.9,-62.6,161.9C-104.7,151,-146.7,130,-169.3,95.5C-191.8,61,-194.9,13.1,-188.6,-35.1C-182.3,-83.3,-166.7,-131.6,-133.7,-174C-100.7,-216.3,-50.4,-252.7,1,-253.8C52.3,-255,104.6,-220.9,146.4,-180.2Z" fill="#FFB4BC" />
  </g>
</svg>
  