<?xml version="1.0" standalone="no"?>
<svg
  width="600"
  height="600"
  viewBox="0 0 600 600"
  xmlns="http://www.w3.org/2000/svg"
>
  <g transform="translate(300,300)">
    <path d="M145.1,-158.1C192,-133.5,236.8,-91.6,251.1,-39.9C265.4,11.7,249.2,73.1,215.1,116.6C181,160.1,129,185.8,76.5,200.8C24.1,215.8,-28.8,220.2,-72,202.5C-115.1,184.7,-148.5,144.9,-183.8,98.8C-219.1,52.8,-256.3,0.5,-253.7,-50.1C-251.1,-100.6,-208.8,-149.5,-159.9,-173.7C-111,-197.9,-55.5,-197.5,-3.2,-193.6C49.1,-189.8,98.1,-182.6,145.1,-158.1Z" fill="#FFB4BC" />
  </g>
</svg>
  