<?xml version="1.0" standalone="no"?>
<svg
  width="600"
  height="600"
  viewBox="0 0 600 600"
  xmlns="http://www.w3.org/2000/svg"
>
  <g transform="translate(300,300)">
    <path d="M167.9,-200.6C212.4,-162.8,239.6,-104.9,248.6,-45.1C257.6,14.6,248.3,76.3,220.5,130C192.8,183.8,146.5,229.6,90.5,251C34.4,272.5,-31.4,269.7,-89.8,247.9C-148.2,226.1,-199.2,185.3,-231.8,132.2C-264.4,79.1,-278.4,13.8,-268,-47.6C-257.6,-108.9,-222.6,-166.3,-173.9,-203.4C-125.1,-240.5,-62.6,-257.2,-0.4,-256.7C61.7,-256.2,123.4,-238.4,167.9,-200.6Z" fill="#FFB4BC" />
  </g>
</svg>
  